<mxfile host="app.diagrams.net" modified="2021-09-06T21:29:23.651Z" agent="5.0 (Windows NT 10.0; Win64; x64) AppleWebKit/537.36 (KHTML, like Gecko) Chrome/92.0.4515.159 Safari/537.36" etag="CdHLsgW3j7U-DVGUWSYz" version="15.1.0" type="github">
  <diagram id="R2lEEEUBdFMjLlhIrx00" name="Page-1">
    <mxGraphModel dx="1014" dy="1667" grid="1" gridSize="10" guides="1" tooltips="1" connect="1" arrows="1" fold="1" page="1" pageScale="1" pageWidth="850" pageHeight="1100" math="0" shadow="0" extFonts="Permanent Marker^https://fonts.googleapis.com/css?family=Permanent+Marker">
      <root>
        <mxCell id="0" />
        <mxCell id="1" parent="0" />
        <mxCell id="C-vyLk0tnHw3VtMMgP7b-13" value="Products" style="shape=table;startSize=30;container=1;collapsible=1;childLayout=tableLayout;fixedRows=1;rowLines=0;fontStyle=1;align=center;resizeLast=1;fillColor=#21C0A5;strokeColor=#006658;fontColor=#5C5C5C;" parent="1" vertex="1">
          <mxGeometry x="530" y="350" width="250" height="130" as="geometry" />
        </mxCell>
        <mxCell id="C-vyLk0tnHw3VtMMgP7b-14" value="" style="shape=partialRectangle;collapsible=0;dropTarget=0;pointerEvents=0;fillColor=none;points=[[0,0.5],[1,0.5]];portConstraint=eastwest;top=0;left=0;right=0;bottom=1;strokeColor=#006658;fontColor=#5C5C5C;" parent="C-vyLk0tnHw3VtMMgP7b-13" vertex="1">
          <mxGeometry y="30" width="250" height="30" as="geometry" />
        </mxCell>
        <mxCell id="C-vyLk0tnHw3VtMMgP7b-15" value="PK" style="shape=partialRectangle;overflow=hidden;connectable=0;fillColor=none;top=0;left=0;bottom=0;right=0;fontStyle=1;strokeColor=#006658;fontColor=#5C5C5C;" parent="C-vyLk0tnHw3VtMMgP7b-14" vertex="1">
          <mxGeometry width="30" height="30" as="geometry" />
        </mxCell>
        <mxCell id="C-vyLk0tnHw3VtMMgP7b-16" value="shipment_idÂ int NOT NULL " style="shape=partialRectangle;overflow=hidden;connectable=0;fillColor=none;top=0;left=0;bottom=0;right=0;align=left;spacingLeft=6;fontStyle=5;strokeColor=#006658;fontColor=#5C5C5C;" parent="C-vyLk0tnHw3VtMMgP7b-14" vertex="1">
          <mxGeometry x="30" width="220" height="30" as="geometry" />
        </mxCell>
        <mxCell id="C-vyLk0tnHw3VtMMgP7b-17" value="" style="shape=partialRectangle;collapsible=0;dropTarget=0;pointerEvents=0;fillColor=none;points=[[0,0.5],[1,0.5]];portConstraint=eastwest;top=0;left=0;right=0;bottom=0;strokeColor=#006658;fontColor=#5C5C5C;" parent="C-vyLk0tnHw3VtMMgP7b-13" vertex="1">
          <mxGeometry y="60" width="250" height="30" as="geometry" />
        </mxCell>
        <mxCell id="C-vyLk0tnHw3VtMMgP7b-18" value="FK1" style="shape=partialRectangle;overflow=hidden;connectable=0;fillColor=none;top=0;left=0;bottom=0;right=0;strokeColor=#006658;fontColor=#5C5C5C;" parent="C-vyLk0tnHw3VtMMgP7b-17" vertex="1">
          <mxGeometry width="30" height="30" as="geometry" />
        </mxCell>
        <mxCell id="C-vyLk0tnHw3VtMMgP7b-19" value="order_id int NOT NULL" style="shape=partialRectangle;overflow=hidden;connectable=0;fillColor=none;top=0;left=0;bottom=0;right=0;align=left;spacingLeft=6;strokeColor=#006658;fontColor=#5C5C5C;" parent="C-vyLk0tnHw3VtMMgP7b-17" vertex="1">
          <mxGeometry x="30" width="220" height="30" as="geometry" />
        </mxCell>
        <mxCell id="C-vyLk0tnHw3VtMMgP7b-20" value="" style="shape=partialRectangle;collapsible=0;dropTarget=0;pointerEvents=0;fillColor=none;points=[[0,0.5],[1,0.5]];portConstraint=eastwest;top=0;left=0;right=0;bottom=0;strokeColor=#006658;fontColor=#5C5C5C;" parent="C-vyLk0tnHw3VtMMgP7b-13" vertex="1">
          <mxGeometry y="90" width="250" height="30" as="geometry" />
        </mxCell>
        <mxCell id="C-vyLk0tnHw3VtMMgP7b-21" value="" style="shape=partialRectangle;overflow=hidden;connectable=0;fillColor=none;top=0;left=0;bottom=0;right=0;strokeColor=#006658;fontColor=#5C5C5C;" parent="C-vyLk0tnHw3VtMMgP7b-20" vertex="1">
          <mxGeometry width="30" height="30" as="geometry" />
        </mxCell>
        <mxCell id="C-vyLk0tnHw3VtMMgP7b-22" value="shipment_date date NOT NULL" style="shape=partialRectangle;overflow=hidden;connectable=0;fillColor=none;top=0;left=0;bottom=0;right=0;align=left;spacingLeft=6;strokeColor=#006658;fontColor=#5C5C5C;" parent="C-vyLk0tnHw3VtMMgP7b-20" vertex="1">
          <mxGeometry x="30" width="220" height="30" as="geometry" />
        </mxCell>
        <mxCell id="C-vyLk0tnHw3VtMMgP7b-23" value="VendingMachine" style="shape=table;startSize=30;container=1;collapsible=1;childLayout=tableLayout;fixedRows=1;rowLines=0;fontStyle=1;align=center;resizeLast=1;fillColor=#21C0A5;strokeColor=#006658;fontColor=#5C5C5C;" parent="1" vertex="1">
          <mxGeometry x="70" y="-490" width="250" height="190" as="geometry" />
        </mxCell>
        <mxCell id="C-vyLk0tnHw3VtMMgP7b-24" value="" style="shape=partialRectangle;collapsible=0;dropTarget=0;pointerEvents=0;fillColor=none;points=[[0,0.5],[1,0.5]];portConstraint=eastwest;top=0;left=0;right=0;bottom=1;strokeColor=#006658;fontColor=#5C5C5C;" parent="C-vyLk0tnHw3VtMMgP7b-23" vertex="1">
          <mxGeometry y="30" width="250" height="30" as="geometry" />
        </mxCell>
        <mxCell id="C-vyLk0tnHw3VtMMgP7b-25" value="PK" style="shape=partialRectangle;overflow=hidden;connectable=0;fillColor=none;top=0;left=0;bottom=0;right=0;fontStyle=1;strokeColor=#006658;fontColor=#5C5C5C;" parent="C-vyLk0tnHw3VtMMgP7b-24" vertex="1">
          <mxGeometry width="50" height="30" as="geometry" />
        </mxCell>
        <mxCell id="C-vyLk0tnHw3VtMMgP7b-26" value="VendingMachineId" style="shape=partialRectangle;overflow=hidden;connectable=0;fillColor=none;top=0;left=0;bottom=0;right=0;align=left;spacingLeft=6;fontStyle=5;strokeColor=#006658;fontColor=#5C5C5C;" parent="C-vyLk0tnHw3VtMMgP7b-24" vertex="1">
          <mxGeometry x="50" width="200" height="30" as="geometry" />
        </mxCell>
        <mxCell id="C-vyLk0tnHw3VtMMgP7b-27" value="" style="shape=partialRectangle;collapsible=0;dropTarget=0;pointerEvents=0;fillColor=none;points=[[0,0.5],[1,0.5]];portConstraint=eastwest;top=0;left=0;right=0;bottom=0;strokeColor=#006658;fontColor=#5C5C5C;" parent="C-vyLk0tnHw3VtMMgP7b-23" vertex="1">
          <mxGeometry y="60" width="250" height="30" as="geometry" />
        </mxCell>
        <mxCell id="C-vyLk0tnHw3VtMMgP7b-28" value="FK" style="shape=partialRectangle;overflow=hidden;connectable=0;fillColor=none;top=0;left=0;bottom=0;right=0;strokeColor=#006658;fontColor=#5C5C5C;" parent="C-vyLk0tnHw3VtMMgP7b-27" vertex="1">
          <mxGeometry width="50" height="30" as="geometry" />
        </mxCell>
        <mxCell id="C-vyLk0tnHw3VtMMgP7b-29" value="EmployeeId" style="shape=partialRectangle;overflow=hidden;connectable=0;fillColor=none;top=0;left=0;bottom=0;right=0;align=left;spacingLeft=6;strokeColor=#006658;fontColor=#5C5C5C;" parent="C-vyLk0tnHw3VtMMgP7b-27" vertex="1">
          <mxGeometry x="50" width="200" height="30" as="geometry" />
        </mxCell>
        <mxCell id="ifjBBACGsGOTzxo3zQSq-43" style="shape=partialRectangle;collapsible=0;dropTarget=0;pointerEvents=0;fillColor=none;points=[[0,0.5],[1,0.5]];portConstraint=eastwest;top=0;left=0;right=0;bottom=1;strokeColor=#006658;fontColor=#5C5C5C;" vertex="1" parent="C-vyLk0tnHw3VtMMgP7b-23">
          <mxGeometry y="90" width="250" height="20" as="geometry" />
        </mxCell>
        <mxCell id="ifjBBACGsGOTzxo3zQSq-44" style="shape=partialRectangle;overflow=hidden;connectable=0;fillColor=none;top=0;left=0;bottom=0;right=0;fontStyle=1;strokeColor=#006658;fontColor=#5C5C5C;" vertex="1" parent="ifjBBACGsGOTzxo3zQSq-43">
          <mxGeometry width="50" height="20" as="geometry" />
        </mxCell>
        <mxCell id="ifjBBACGsGOTzxo3zQSq-45" style="shape=partialRectangle;overflow=hidden;connectable=0;fillColor=none;top=0;left=0;bottom=0;right=0;align=left;spacingLeft=6;fontStyle=5;strokeColor=#006658;fontColor=#5C5C5C;" vertex="1" parent="ifjBBACGsGOTzxo3zQSq-43">
          <mxGeometry x="50" width="200" height="20" as="geometry" />
        </mxCell>
        <mxCell id="ifjBBACGsGOTzxo3zQSq-40" style="shape=partialRectangle;collapsible=0;dropTarget=0;pointerEvents=0;fillColor=none;points=[[0,0.5],[1,0.5]];portConstraint=eastwest;top=0;left=0;right=0;bottom=1;strokeColor=#006658;fontColor=#5C5C5C;" vertex="1" parent="C-vyLk0tnHw3VtMMgP7b-23">
          <mxGeometry y="110" width="250" height="40" as="geometry" />
        </mxCell>
        <mxCell id="ifjBBACGsGOTzxo3zQSq-41" value="FK" style="shape=partialRectangle;overflow=hidden;connectable=0;fillColor=none;top=0;left=0;bottom=0;right=0;fontStyle=1;strokeColor=#006658;fontColor=#5C5C5C;" vertex="1" parent="ifjBBACGsGOTzxo3zQSq-40">
          <mxGeometry width="50" height="40" as="geometry" />
        </mxCell>
        <mxCell id="ifjBBACGsGOTzxo3zQSq-42" value="AddressID" style="shape=partialRectangle;overflow=hidden;connectable=0;fillColor=none;top=0;left=0;bottom=0;right=0;align=left;spacingLeft=6;fontStyle=5;strokeColor=#006658;fontColor=#5C5C5C;" vertex="1" parent="ifjBBACGsGOTzxo3zQSq-40">
          <mxGeometry x="50" width="200" height="40" as="geometry" />
        </mxCell>
        <mxCell id="ifjBBACGsGOTzxo3zQSq-12" value="States" style="shape=table;startSize=30;container=1;collapsible=0;childLayout=tableLayout;fontStyle=1;align=center;pointerEvents=1;fillColor=#21C0A5;strokeColor=#006658;fontColor=#5C5C5C;" vertex="1" parent="1">
          <mxGeometry x="850" y="-40" width="240" height="110" as="geometry" />
        </mxCell>
        <mxCell id="ifjBBACGsGOTzxo3zQSq-13" value="" style="shape=partialRectangle;html=1;whiteSpace=wrap;collapsible=0;dropTarget=0;pointerEvents=0;fillColor=none;top=0;left=0;bottom=0;right=0;points=[[0,0.5],[1,0.5]];portConstraint=eastwest;strokeColor=#006658;fontColor=#5C5C5C;" vertex="1" parent="ifjBBACGsGOTzxo3zQSq-12">
          <mxGeometry y="30" width="240" height="40" as="geometry" />
        </mxCell>
        <mxCell id="ifjBBACGsGOTzxo3zQSq-14" value="PK" style="shape=partialRectangle;html=1;whiteSpace=wrap;connectable=0;fillColor=none;top=0;left=0;bottom=0;right=0;overflow=hidden;pointerEvents=1;strokeColor=#006658;fontColor=#5C5C5C;" vertex="1" parent="ifjBBACGsGOTzxo3zQSq-13">
          <mxGeometry width="121" height="40" as="geometry" />
        </mxCell>
        <mxCell id="ifjBBACGsGOTzxo3zQSq-15" value="StateId" style="shape=partialRectangle;html=1;whiteSpace=wrap;connectable=0;fillColor=none;top=0;left=0;bottom=0;right=0;overflow=hidden;pointerEvents=1;strokeColor=#006658;fontColor=#5C5C5C;" vertex="1" parent="ifjBBACGsGOTzxo3zQSq-13">
          <mxGeometry x="121" width="119" height="40" as="geometry" />
        </mxCell>
        <mxCell id="ifjBBACGsGOTzxo3zQSq-17" value="" style="shape=partialRectangle;html=1;whiteSpace=wrap;collapsible=0;dropTarget=0;pointerEvents=0;fillColor=none;top=0;left=0;bottom=0;right=0;points=[[0,0.5],[1,0.5]];portConstraint=eastwest;strokeColor=#006658;fontColor=#5C5C5C;" vertex="1" parent="ifjBBACGsGOTzxo3zQSq-12">
          <mxGeometry y="70" width="240" height="40" as="geometry" />
        </mxCell>
        <mxCell id="ifjBBACGsGOTzxo3zQSq-18" value="varchar" style="shape=partialRectangle;html=1;whiteSpace=wrap;connectable=0;fillColor=none;top=0;left=0;bottom=0;right=0;overflow=hidden;pointerEvents=1;strokeColor=#006658;fontColor=#5C5C5C;" vertex="1" parent="ifjBBACGsGOTzxo3zQSq-17">
          <mxGeometry width="121" height="40" as="geometry" />
        </mxCell>
        <mxCell id="ifjBBACGsGOTzxo3zQSq-19" value="StateName" style="shape=partialRectangle;html=1;whiteSpace=wrap;connectable=0;fillColor=none;top=0;left=0;bottom=0;right=0;overflow=hidden;pointerEvents=1;strokeColor=#006658;fontColor=#5C5C5C;" vertex="1" parent="ifjBBACGsGOTzxo3zQSq-17">
          <mxGeometry x="121" width="119" height="40" as="geometry" />
        </mxCell>
        <mxCell id="ifjBBACGsGOTzxo3zQSq-25" value="Sales" style="shape=table;startSize=30;container=1;collapsible=0;childLayout=tableLayout;fontStyle=1;align=center;pointerEvents=1;fillColor=#21C0A5;strokeColor=#006658;fontColor=#5C5C5C;" vertex="1" parent="1">
          <mxGeometry x="80" y="-190" width="260" height="150" as="geometry" />
        </mxCell>
        <mxCell id="ifjBBACGsGOTzxo3zQSq-26" value="" style="shape=partialRectangle;html=1;whiteSpace=wrap;collapsible=0;dropTarget=0;pointerEvents=0;fillColor=none;top=0;left=0;bottom=0;right=0;points=[[0,0.5],[1,0.5]];portConstraint=eastwest;strokeColor=#006658;fontColor=#5C5C5C;" vertex="1" parent="ifjBBACGsGOTzxo3zQSq-25">
          <mxGeometry y="30" width="260" height="40" as="geometry" />
        </mxCell>
        <mxCell id="ifjBBACGsGOTzxo3zQSq-27" value="" style="shape=partialRectangle;html=1;whiteSpace=wrap;connectable=0;fillColor=none;top=0;left=0;bottom=0;right=0;overflow=hidden;pointerEvents=1;strokeColor=#006658;fontColor=#5C5C5C;" vertex="1" parent="ifjBBACGsGOTzxo3zQSq-26">
          <mxGeometry width="87" height="40" as="geometry" />
        </mxCell>
        <mxCell id="ifjBBACGsGOTzxo3zQSq-28" value="" style="shape=partialRectangle;html=1;whiteSpace=wrap;connectable=0;fillColor=none;top=0;left=0;bottom=0;right=0;overflow=hidden;pointerEvents=1;strokeColor=#006658;fontColor=#5C5C5C;" vertex="1" parent="ifjBBACGsGOTzxo3zQSq-26">
          <mxGeometry x="87" width="86" height="40" as="geometry" />
        </mxCell>
        <mxCell id="ifjBBACGsGOTzxo3zQSq-29" value="" style="shape=partialRectangle;html=1;whiteSpace=wrap;connectable=0;fillColor=none;top=0;left=0;bottom=0;right=0;overflow=hidden;pointerEvents=1;strokeColor=#006658;fontColor=#5C5C5C;" vertex="1" parent="ifjBBACGsGOTzxo3zQSq-26">
          <mxGeometry x="173" width="87" height="40" as="geometry" />
        </mxCell>
        <mxCell id="ifjBBACGsGOTzxo3zQSq-30" value="" style="shape=partialRectangle;html=1;whiteSpace=wrap;collapsible=0;dropTarget=0;pointerEvents=0;fillColor=none;top=0;left=0;bottom=0;right=0;points=[[0,0.5],[1,0.5]];portConstraint=eastwest;strokeColor=#006658;fontColor=#5C5C5C;" vertex="1" parent="ifjBBACGsGOTzxo3zQSq-25">
          <mxGeometry y="70" width="260" height="40" as="geometry" />
        </mxCell>
        <mxCell id="ifjBBACGsGOTzxo3zQSq-31" value="" style="shape=partialRectangle;html=1;whiteSpace=wrap;connectable=0;fillColor=none;top=0;left=0;bottom=0;right=0;overflow=hidden;pointerEvents=1;strokeColor=#006658;fontColor=#5C5C5C;" vertex="1" parent="ifjBBACGsGOTzxo3zQSq-30">
          <mxGeometry width="87" height="40" as="geometry" />
        </mxCell>
        <mxCell id="ifjBBACGsGOTzxo3zQSq-32" value="" style="shape=partialRectangle;html=1;whiteSpace=wrap;connectable=0;fillColor=none;top=0;left=0;bottom=0;right=0;overflow=hidden;pointerEvents=1;strokeColor=#006658;fontColor=#5C5C5C;" vertex="1" parent="ifjBBACGsGOTzxo3zQSq-30">
          <mxGeometry x="87" width="86" height="40" as="geometry" />
        </mxCell>
        <mxCell id="ifjBBACGsGOTzxo3zQSq-33" value="" style="shape=partialRectangle;html=1;whiteSpace=wrap;connectable=0;fillColor=none;top=0;left=0;bottom=0;right=0;overflow=hidden;pointerEvents=1;strokeColor=#006658;fontColor=#5C5C5C;" vertex="1" parent="ifjBBACGsGOTzxo3zQSq-30">
          <mxGeometry x="173" width="87" height="40" as="geometry" />
        </mxCell>
        <mxCell id="ifjBBACGsGOTzxo3zQSq-34" value="" style="shape=partialRectangle;html=1;whiteSpace=wrap;collapsible=0;dropTarget=0;pointerEvents=0;fillColor=none;top=0;left=0;bottom=0;right=0;points=[[0,0.5],[1,0.5]];portConstraint=eastwest;strokeColor=#006658;fontColor=#5C5C5C;" vertex="1" parent="ifjBBACGsGOTzxo3zQSq-25">
          <mxGeometry y="110" width="260" height="40" as="geometry" />
        </mxCell>
        <mxCell id="ifjBBACGsGOTzxo3zQSq-35" value="" style="shape=partialRectangle;html=1;whiteSpace=wrap;connectable=0;fillColor=none;top=0;left=0;bottom=0;right=0;overflow=hidden;pointerEvents=1;strokeColor=#006658;fontColor=#5C5C5C;" vertex="1" parent="ifjBBACGsGOTzxo3zQSq-34">
          <mxGeometry width="87" height="40" as="geometry" />
        </mxCell>
        <mxCell id="ifjBBACGsGOTzxo3zQSq-36" value="" style="shape=partialRectangle;html=1;whiteSpace=wrap;connectable=0;fillColor=none;top=0;left=0;bottom=0;right=0;overflow=hidden;pointerEvents=1;strokeColor=#006658;fontColor=#5C5C5C;" vertex="1" parent="ifjBBACGsGOTzxo3zQSq-34">
          <mxGeometry x="87" width="86" height="40" as="geometry" />
        </mxCell>
        <mxCell id="ifjBBACGsGOTzxo3zQSq-37" value="" style="shape=partialRectangle;html=1;whiteSpace=wrap;connectable=0;fillColor=none;top=0;left=0;bottom=0;right=0;overflow=hidden;pointerEvents=1;strokeColor=#006658;fontColor=#5C5C5C;" vertex="1" parent="ifjBBACGsGOTzxo3zQSq-34">
          <mxGeometry x="173" width="87" height="40" as="geometry" />
        </mxCell>
        <mxCell id="ifjBBACGsGOTzxo3zQSq-49" style="edgeStyle=orthogonalEdgeStyle;curved=0;rounded=1;sketch=0;orthogonalLoop=1;jettySize=auto;html=1;exitX=0.5;exitY=0;exitDx=0;exitDy=0;entryX=0.508;entryY=0.173;entryDx=0;entryDy=0;entryPerimeter=0;fontColor=#5C5C5C;strokeColor=#006658;fillColor=#21C0A5;" edge="1" parent="1">
          <mxGeometry relative="1" as="geometry">
            <mxPoint x="200.00000000000023" y="-130" as="sourcePoint" />
            <mxPoint x="202.07999999999993" y="-104.04999999999995" as="targetPoint" />
          </mxGeometry>
        </mxCell>
        <mxCell id="ifjBBACGsGOTzxo3zQSq-51" value="VendingMachine_Providers" style="shape=table;startSize=30;container=1;collapsible=0;childLayout=tableLayout;fontStyle=1;align=center;pointerEvents=1;rounded=0;sketch=0;fontColor=#5C5C5C;strokeColor=#006658;fillColor=#21C0A5;" vertex="1" parent="1">
          <mxGeometry x="470" y="-490" width="200" height="150" as="geometry" />
        </mxCell>
        <mxCell id="ifjBBACGsGOTzxo3zQSq-65" style="shape=partialRectangle;html=1;whiteSpace=wrap;collapsible=0;dropTarget=0;pointerEvents=0;fillColor=none;top=0;left=0;bottom=0;right=0;points=[[0,0.5],[1,0.5]];portConstraint=eastwest;" vertex="1" parent="ifjBBACGsGOTzxo3zQSq-51">
          <mxGeometry y="30" width="200" height="40" as="geometry" />
        </mxCell>
        <mxCell id="ifjBBACGsGOTzxo3zQSq-66" value="PK" style="shape=partialRectangle;html=1;whiteSpace=wrap;connectable=0;fillColor=none;top=0;left=0;bottom=0;right=0;overflow=hidden;pointerEvents=1;" vertex="1" parent="ifjBBACGsGOTzxo3zQSq-65">
          <mxGeometry width="75" height="40" as="geometry" />
        </mxCell>
        <mxCell id="ifjBBACGsGOTzxo3zQSq-67" value="Vending_Provider" style="shape=partialRectangle;html=1;whiteSpace=wrap;connectable=0;fillColor=none;top=0;left=0;bottom=0;right=0;overflow=hidden;pointerEvents=1;" vertex="1" parent="ifjBBACGsGOTzxo3zQSq-65">
          <mxGeometry x="75" width="125" height="40" as="geometry" />
        </mxCell>
        <mxCell id="ifjBBACGsGOTzxo3zQSq-52" value="" style="shape=partialRectangle;html=1;whiteSpace=wrap;collapsible=0;dropTarget=0;pointerEvents=0;fillColor=none;top=0;left=0;bottom=0;right=0;points=[[0,0.5],[1,0.5]];portConstraint=eastwest;" vertex="1" parent="ifjBBACGsGOTzxo3zQSq-51">
          <mxGeometry y="70" width="200" height="40" as="geometry" />
        </mxCell>
        <mxCell id="ifjBBACGsGOTzxo3zQSq-53" value="FK" style="shape=partialRectangle;html=1;whiteSpace=wrap;connectable=0;fillColor=none;top=0;left=0;bottom=0;right=0;overflow=hidden;pointerEvents=1;" vertex="1" parent="ifjBBACGsGOTzxo3zQSq-52">
          <mxGeometry width="75" height="40" as="geometry" />
        </mxCell>
        <mxCell id="ifjBBACGsGOTzxo3zQSq-54" value="VendingMachineId" style="shape=partialRectangle;html=1;whiteSpace=wrap;connectable=0;fillColor=none;top=0;left=0;bottom=0;right=0;overflow=hidden;pointerEvents=1;" vertex="1" parent="ifjBBACGsGOTzxo3zQSq-52">
          <mxGeometry x="75" width="125" height="40" as="geometry" />
        </mxCell>
        <mxCell id="ifjBBACGsGOTzxo3zQSq-56" value="" style="shape=partialRectangle;html=1;whiteSpace=wrap;collapsible=0;dropTarget=0;pointerEvents=0;fillColor=none;top=0;left=0;bottom=0;right=0;points=[[0,0.5],[1,0.5]];portConstraint=eastwest;" vertex="1" parent="ifjBBACGsGOTzxo3zQSq-51">
          <mxGeometry y="110" width="200" height="40" as="geometry" />
        </mxCell>
        <mxCell id="ifjBBACGsGOTzxo3zQSq-57" value="FK" style="shape=partialRectangle;html=1;whiteSpace=wrap;connectable=0;fillColor=none;top=0;left=0;bottom=0;right=0;overflow=hidden;pointerEvents=1;" vertex="1" parent="ifjBBACGsGOTzxo3zQSq-56">
          <mxGeometry width="75" height="40" as="geometry" />
        </mxCell>
        <mxCell id="ifjBBACGsGOTzxo3zQSq-58" value="ProvidersId" style="shape=partialRectangle;html=1;whiteSpace=wrap;connectable=0;fillColor=none;top=0;left=0;bottom=0;right=0;overflow=hidden;pointerEvents=1;" vertex="1" parent="ifjBBACGsGOTzxo3zQSq-56">
          <mxGeometry x="75" width="125" height="40" as="geometry" />
        </mxCell>
        <mxCell id="ifjBBACGsGOTzxo3zQSq-68" value="4" style="text;html=1;align=center;verticalAlign=middle;resizable=0;points=[];autosize=1;strokeColor=none;fillColor=none;fontColor=#5C5C5C;" vertex="1" parent="1">
          <mxGeometry x="40" y="-130" width="20" height="20" as="geometry" />
        </mxCell>
        <mxCell id="ifjBBACGsGOTzxo3zQSq-74" value="" style="edgeStyle=orthogonalEdgeStyle;fontSize=12;html=1;endArrow=ERoneToMany;fontColor=#5C5C5C;strokeColor=#006658;fillColor=#21C0A5;entryX=0;entryY=0.5;entryDx=0;entryDy=0;exitX=0;exitY=0.5;exitDx=0;exitDy=0;" edge="1" parent="1" target="C-vyLk0tnHw3VtMMgP7b-24">
          <mxGeometry width="100" height="100" relative="1" as="geometry">
            <mxPoint x="70" y="-85" as="sourcePoint" />
            <mxPoint x="470" y="-100" as="targetPoint" />
          </mxGeometry>
        </mxCell>
        <mxCell id="ifjBBACGsGOTzxo3zQSq-80" value="" style="edgeStyle=entityRelationEdgeStyle;fontSize=12;html=1;endArrow=ERmany;startArrow=ERmany;fontColor=#5C5C5C;strokeColor=#006658;fillColor=#21C0A5;exitX=1;exitY=0.5;exitDx=0;exitDy=0;entryX=0;entryY=0.5;entryDx=0;entryDy=0;" edge="1" parent="1" source="ifjBBACGsGOTzxo3zQSq-56" target="ifjBBACGsGOTzxo3zQSq-98">
          <mxGeometry width="100" height="100" relative="1" as="geometry">
            <mxPoint x="600" y="-50" as="sourcePoint" />
            <mxPoint x="670" y="-235" as="targetPoint" />
          </mxGeometry>
        </mxCell>
        <mxCell id="ifjBBACGsGOTzxo3zQSq-81" value="" style="edgeStyle=entityRelationEdgeStyle;fontSize=12;html=1;endArrow=ERmany;startArrow=ERmany;fontColor=#5C5C5C;strokeColor=#006658;fillColor=#21C0A5;exitX=1;exitY=0.5;exitDx=0;exitDy=0;entryX=0;entryY=0.5;entryDx=0;entryDy=0;" edge="1" parent="1" source="C-vyLk0tnHw3VtMMgP7b-24" target="ifjBBACGsGOTzxo3zQSq-52">
          <mxGeometry width="100" height="100" relative="1" as="geometry">
            <mxPoint x="440" y="-110" as="sourcePoint" />
            <mxPoint x="540" y="-210" as="targetPoint" />
          </mxGeometry>
        </mxCell>
        <mxCell id="ifjBBACGsGOTzxo3zQSq-97" value="Providers" style="shape=table;startSize=30;container=1;collapsible=0;childLayout=tableLayout;fontStyle=1;align=center;pointerEvents=1;rounded=0;sketch=0;fontColor=#5C5C5C;strokeColor=#006658;fillColor=#21C0A5;" vertex="1" parent="1">
          <mxGeometry x="790" y="-490" width="220" height="190" as="geometry" />
        </mxCell>
        <mxCell id="ifjBBACGsGOTzxo3zQSq-98" value="" style="shape=partialRectangle;html=1;whiteSpace=wrap;collapsible=0;dropTarget=0;pointerEvents=0;fillColor=none;top=0;left=0;bottom=0;right=0;points=[[0,0.5],[1,0.5]];portConstraint=eastwest;" vertex="1" parent="ifjBBACGsGOTzxo3zQSq-97">
          <mxGeometry y="30" width="220" height="40" as="geometry" />
        </mxCell>
        <mxCell id="ifjBBACGsGOTzxo3zQSq-99" value="PK" style="shape=partialRectangle;html=1;whiteSpace=wrap;connectable=0;fillColor=none;top=0;left=0;bottom=0;right=0;overflow=hidden;pointerEvents=1;" vertex="1" parent="ifjBBACGsGOTzxo3zQSq-98">
          <mxGeometry width="110" height="40" as="geometry" />
        </mxCell>
        <mxCell id="ifjBBACGsGOTzxo3zQSq-100" value="ProvidersID" style="shape=partialRectangle;html=1;whiteSpace=wrap;connectable=0;fillColor=none;top=0;left=0;bottom=0;right=0;overflow=hidden;pointerEvents=1;" vertex="1" parent="ifjBBACGsGOTzxo3zQSq-98">
          <mxGeometry x="110" width="110" height="40" as="geometry" />
        </mxCell>
        <mxCell id="ifjBBACGsGOTzxo3zQSq-102" value="" style="shape=partialRectangle;html=1;whiteSpace=wrap;collapsible=0;dropTarget=0;pointerEvents=0;fillColor=none;top=0;left=0;bottom=0;right=0;points=[[0,0.5],[1,0.5]];portConstraint=eastwest;" vertex="1" parent="ifjBBACGsGOTzxo3zQSq-97">
          <mxGeometry y="70" width="220" height="40" as="geometry" />
        </mxCell>
        <mxCell id="ifjBBACGsGOTzxo3zQSq-103" value="varchar" style="shape=partialRectangle;html=1;whiteSpace=wrap;connectable=0;fillColor=none;top=0;left=0;bottom=0;right=0;overflow=hidden;pointerEvents=1;" vertex="1" parent="ifjBBACGsGOTzxo3zQSq-102">
          <mxGeometry width="110" height="40" as="geometry" />
        </mxCell>
        <mxCell id="ifjBBACGsGOTzxo3zQSq-104" value="ProviderName" style="shape=partialRectangle;html=1;whiteSpace=wrap;connectable=0;fillColor=none;top=0;left=0;bottom=0;right=0;overflow=hidden;pointerEvents=1;" vertex="1" parent="ifjBBACGsGOTzxo3zQSq-102">
          <mxGeometry x="110" width="110" height="40" as="geometry" />
        </mxCell>
        <mxCell id="ifjBBACGsGOTzxo3zQSq-106" value="" style="shape=partialRectangle;html=1;whiteSpace=wrap;collapsible=0;dropTarget=0;pointerEvents=0;fillColor=none;top=0;left=0;bottom=0;right=0;points=[[0,0.5],[1,0.5]];portConstraint=eastwest;" vertex="1" parent="ifjBBACGsGOTzxo3zQSq-97">
          <mxGeometry y="110" width="220" height="40" as="geometry" />
        </mxCell>
        <mxCell id="ifjBBACGsGOTzxo3zQSq-107" value="PK" style="shape=partialRectangle;html=1;whiteSpace=wrap;connectable=0;fillColor=none;top=0;left=0;bottom=0;right=0;overflow=hidden;pointerEvents=1;" vertex="1" parent="ifjBBACGsGOTzxo3zQSq-106">
          <mxGeometry width="110" height="40" as="geometry" />
        </mxCell>
        <mxCell id="ifjBBACGsGOTzxo3zQSq-108" value="Location" style="shape=partialRectangle;html=1;whiteSpace=wrap;connectable=0;fillColor=none;top=0;left=0;bottom=0;right=0;overflow=hidden;pointerEvents=1;" vertex="1" parent="ifjBBACGsGOTzxo3zQSq-106">
          <mxGeometry x="110" width="110" height="40" as="geometry" />
        </mxCell>
        <mxCell id="ifjBBACGsGOTzxo3zQSq-110" style="shape=partialRectangle;html=1;whiteSpace=wrap;collapsible=0;dropTarget=0;pointerEvents=0;fillColor=none;top=0;left=0;bottom=0;right=0;points=[[0,0.5],[1,0.5]];portConstraint=eastwest;" vertex="1" parent="ifjBBACGsGOTzxo3zQSq-97">
          <mxGeometry y="150" width="220" height="40" as="geometry" />
        </mxCell>
        <mxCell id="ifjBBACGsGOTzxo3zQSq-111" value="varchar" style="shape=partialRectangle;html=1;whiteSpace=wrap;connectable=0;fillColor=none;top=0;left=0;bottom=0;right=0;overflow=hidden;pointerEvents=1;" vertex="1" parent="ifjBBACGsGOTzxo3zQSq-110">
          <mxGeometry width="110" height="40" as="geometry" />
        </mxCell>
        <mxCell id="ifjBBACGsGOTzxo3zQSq-112" value="PhoneNumber" style="shape=partialRectangle;html=1;whiteSpace=wrap;connectable=0;fillColor=none;top=0;left=0;bottom=0;right=0;overflow=hidden;pointerEvents=1;" vertex="1" parent="ifjBBACGsGOTzxo3zQSq-110">
          <mxGeometry x="110" width="110" height="40" as="geometry" />
        </mxCell>
        <mxCell id="ifjBBACGsGOTzxo3zQSq-126" value="Machine_Address" style="shape=table;startSize=30;container=1;collapsible=0;childLayout=tableLayout;fontStyle=1;align=center;pointerEvents=1;rounded=0;sketch=0;fontColor=#5C5C5C;strokeColor=#006658;fillColor=#21C0A5;" vertex="1" parent="1">
          <mxGeometry x="440" y="-270" width="300" height="150" as="geometry" />
        </mxCell>
        <mxCell id="ifjBBACGsGOTzxo3zQSq-127" value="" style="shape=partialRectangle;html=1;whiteSpace=wrap;collapsible=0;dropTarget=0;pointerEvents=0;fillColor=none;top=0;left=0;bottom=0;right=0;points=[[0,0.5],[1,0.5]];portConstraint=eastwest;" vertex="1" parent="ifjBBACGsGOTzxo3zQSq-126">
          <mxGeometry y="30" width="300" height="40" as="geometry" />
        </mxCell>
        <mxCell id="ifjBBACGsGOTzxo3zQSq-128" value="PK" style="shape=partialRectangle;html=1;whiteSpace=wrap;connectable=0;fillColor=none;top=0;left=0;bottom=0;right=0;overflow=hidden;pointerEvents=1;" vertex="1" parent="ifjBBACGsGOTzxo3zQSq-127">
          <mxGeometry width="150" height="40" as="geometry" />
        </mxCell>
        <mxCell id="ifjBBACGsGOTzxo3zQSq-129" value="AddressID" style="shape=partialRectangle;html=1;whiteSpace=wrap;connectable=0;fillColor=none;top=0;left=0;bottom=0;right=0;overflow=hidden;pointerEvents=1;" vertex="1" parent="ifjBBACGsGOTzxo3zQSq-127">
          <mxGeometry x="150" width="150" height="40" as="geometry" />
        </mxCell>
        <mxCell id="ifjBBACGsGOTzxo3zQSq-131" value="" style="shape=partialRectangle;html=1;whiteSpace=wrap;collapsible=0;dropTarget=0;pointerEvents=0;fillColor=none;top=0;left=0;bottom=0;right=0;points=[[0,0.5],[1,0.5]];portConstraint=eastwest;" vertex="1" parent="ifjBBACGsGOTzxo3zQSq-126">
          <mxGeometry y="70" width="300" height="40" as="geometry" />
        </mxCell>
        <mxCell id="ifjBBACGsGOTzxo3zQSq-132" value="varchar" style="shape=partialRectangle;html=1;whiteSpace=wrap;connectable=0;fillColor=none;top=0;left=0;bottom=0;right=0;overflow=hidden;pointerEvents=1;" vertex="1" parent="ifjBBACGsGOTzxo3zQSq-131">
          <mxGeometry width="150" height="40" as="geometry" />
        </mxCell>
        <mxCell id="ifjBBACGsGOTzxo3zQSq-133" value="AddressName" style="shape=partialRectangle;html=1;whiteSpace=wrap;connectable=0;fillColor=none;top=0;left=0;bottom=0;right=0;overflow=hidden;pointerEvents=1;" vertex="1" parent="ifjBBACGsGOTzxo3zQSq-131">
          <mxGeometry x="150" width="150" height="40" as="geometry" />
        </mxCell>
        <mxCell id="ifjBBACGsGOTzxo3zQSq-135" value="" style="shape=partialRectangle;html=1;whiteSpace=wrap;collapsible=0;dropTarget=0;pointerEvents=0;fillColor=none;top=0;left=0;bottom=0;right=0;points=[[0,0.5],[1,0.5]];portConstraint=eastwest;" vertex="1" parent="ifjBBACGsGOTzxo3zQSq-126">
          <mxGeometry y="110" width="300" height="40" as="geometry" />
        </mxCell>
        <mxCell id="ifjBBACGsGOTzxo3zQSq-136" value="FK" style="shape=partialRectangle;html=1;whiteSpace=wrap;connectable=0;fillColor=none;top=0;left=0;bottom=0;right=0;overflow=hidden;pointerEvents=1;" vertex="1" parent="ifjBBACGsGOTzxo3zQSq-135">
          <mxGeometry width="150" height="40" as="geometry" />
        </mxCell>
        <mxCell id="ifjBBACGsGOTzxo3zQSq-137" value="StateID" style="shape=partialRectangle;html=1;whiteSpace=wrap;connectable=0;fillColor=none;top=0;left=0;bottom=0;right=0;overflow=hidden;pointerEvents=1;" vertex="1" parent="ifjBBACGsGOTzxo3zQSq-135">
          <mxGeometry x="150" width="150" height="40" as="geometry" />
        </mxCell>
        <mxCell id="ifjBBACGsGOTzxo3zQSq-172" value="" style="edgeStyle=entityRelationEdgeStyle;fontSize=12;html=1;endArrow=ERmandOne;startArrow=ERmandOne;fontColor=#5C5C5C;strokeColor=#006658;fillColor=#21C0A5;exitX=1;exitY=0.5;exitDx=0;exitDy=0;entryX=0;entryY=0.5;entryDx=0;entryDy=0;" edge="1" parent="1" source="ifjBBACGsGOTzxo3zQSq-135" target="ifjBBACGsGOTzxo3zQSq-13">
          <mxGeometry width="100" height="100" relative="1" as="geometry">
            <mxPoint x="750" y="60" as="sourcePoint" />
            <mxPoint x="850" y="-40" as="targetPoint" />
          </mxGeometry>
        </mxCell>
        <mxCell id="ifjBBACGsGOTzxo3zQSq-173" value="Employees" style="shape=table;startSize=30;container=1;collapsible=0;childLayout=tableLayout;fontStyle=1;align=center;pointerEvents=1;rounded=0;sketch=0;fontColor=#5C5C5C;strokeColor=#006658;fillColor=#21C0A5;" vertex="1" parent="1">
          <mxGeometry x="460" y="30" width="260" height="190" as="geometry" />
        </mxCell>
        <mxCell id="ifjBBACGsGOTzxo3zQSq-174" value="" style="shape=partialRectangle;html=1;whiteSpace=wrap;collapsible=0;dropTarget=0;pointerEvents=0;fillColor=none;top=0;left=0;bottom=0;right=0;points=[[0,0.5],[1,0.5]];portConstraint=eastwest;" vertex="1" parent="ifjBBACGsGOTzxo3zQSq-173">
          <mxGeometry y="30" width="260" height="40" as="geometry" />
        </mxCell>
        <mxCell id="ifjBBACGsGOTzxo3zQSq-175" value="PK" style="shape=partialRectangle;html=1;whiteSpace=wrap;connectable=0;fillColor=none;top=0;left=0;bottom=0;right=0;overflow=hidden;pointerEvents=1;" vertex="1" parent="ifjBBACGsGOTzxo3zQSq-174">
          <mxGeometry width="130" height="40" as="geometry" />
        </mxCell>
        <mxCell id="ifjBBACGsGOTzxo3zQSq-176" value="EmployeeID" style="shape=partialRectangle;html=1;whiteSpace=wrap;connectable=0;fillColor=none;top=0;left=0;bottom=0;right=0;overflow=hidden;pointerEvents=1;" vertex="1" parent="ifjBBACGsGOTzxo3zQSq-174">
          <mxGeometry x="130" width="130" height="40" as="geometry" />
        </mxCell>
        <mxCell id="ifjBBACGsGOTzxo3zQSq-178" value="" style="shape=partialRectangle;html=1;whiteSpace=wrap;collapsible=0;dropTarget=0;pointerEvents=0;fillColor=none;top=0;left=0;bottom=0;right=0;points=[[0,0.5],[1,0.5]];portConstraint=eastwest;" vertex="1" parent="ifjBBACGsGOTzxo3zQSq-173">
          <mxGeometry y="70" width="260" height="40" as="geometry" />
        </mxCell>
        <mxCell id="ifjBBACGsGOTzxo3zQSq-179" value="varchar" style="shape=partialRectangle;html=1;whiteSpace=wrap;connectable=0;fillColor=none;top=0;left=0;bottom=0;right=0;overflow=hidden;pointerEvents=1;" vertex="1" parent="ifjBBACGsGOTzxo3zQSq-178">
          <mxGeometry width="130" height="40" as="geometry" />
        </mxCell>
        <mxCell id="ifjBBACGsGOTzxo3zQSq-180" value="EmployeeName" style="shape=partialRectangle;html=1;whiteSpace=wrap;connectable=0;fillColor=none;top=0;left=0;bottom=0;right=0;overflow=hidden;pointerEvents=1;" vertex="1" parent="ifjBBACGsGOTzxo3zQSq-178">
          <mxGeometry x="130" width="130" height="40" as="geometry" />
        </mxCell>
        <mxCell id="ifjBBACGsGOTzxo3zQSq-182" value="" style="shape=partialRectangle;html=1;whiteSpace=wrap;collapsible=0;dropTarget=0;pointerEvents=0;fillColor=none;top=0;left=0;bottom=0;right=0;points=[[0,0.5],[1,0.5]];portConstraint=eastwest;" vertex="1" parent="ifjBBACGsGOTzxo3zQSq-173">
          <mxGeometry y="110" width="260" height="40" as="geometry" />
        </mxCell>
        <mxCell id="ifjBBACGsGOTzxo3zQSq-183" value="FK" style="shape=partialRectangle;html=1;whiteSpace=wrap;connectable=0;fillColor=none;top=0;left=0;bottom=0;right=0;overflow=hidden;pointerEvents=1;" vertex="1" parent="ifjBBACGsGOTzxo3zQSq-182">
          <mxGeometry width="130" height="40" as="geometry" />
        </mxCell>
        <mxCell id="ifjBBACGsGOTzxo3zQSq-184" value="StateID" style="shape=partialRectangle;html=1;whiteSpace=wrap;connectable=0;fillColor=none;top=0;left=0;bottom=0;right=0;overflow=hidden;pointerEvents=1;" vertex="1" parent="ifjBBACGsGOTzxo3zQSq-182">
          <mxGeometry x="130" width="130" height="40" as="geometry" />
        </mxCell>
        <mxCell id="ifjBBACGsGOTzxo3zQSq-188" style="shape=partialRectangle;html=1;whiteSpace=wrap;collapsible=0;dropTarget=0;pointerEvents=0;fillColor=none;top=0;left=0;bottom=0;right=0;points=[[0,0.5],[1,0.5]];portConstraint=eastwest;" vertex="1" parent="ifjBBACGsGOTzxo3zQSq-173">
          <mxGeometry y="150" width="260" height="40" as="geometry" />
        </mxCell>
        <mxCell id="ifjBBACGsGOTzxo3zQSq-189" value="varchar" style="shape=partialRectangle;html=1;whiteSpace=wrap;connectable=0;fillColor=none;top=0;left=0;bottom=0;right=0;overflow=hidden;pointerEvents=1;" vertex="1" parent="ifjBBACGsGOTzxo3zQSq-188">
          <mxGeometry width="130" height="40" as="geometry" />
        </mxCell>
        <mxCell id="ifjBBACGsGOTzxo3zQSq-190" value="EmployeeAddress" style="shape=partialRectangle;html=1;whiteSpace=wrap;connectable=0;fillColor=none;top=0;left=0;bottom=0;right=0;overflow=hidden;pointerEvents=1;" vertex="1" parent="ifjBBACGsGOTzxo3zQSq-188">
          <mxGeometry x="130" width="130" height="40" as="geometry" />
        </mxCell>
        <mxCell id="ifjBBACGsGOTzxo3zQSq-186" value="" style="edgeStyle=entityRelationEdgeStyle;fontSize=12;html=1;endArrow=ERmandOne;startArrow=ERmandOne;fontColor=#5C5C5C;strokeColor=#006658;fillColor=#21C0A5;exitX=1;exitY=0.5;exitDx=0;exitDy=0;entryX=0;entryY=0.5;entryDx=0;entryDy=0;" edge="1" parent="1" source="ifjBBACGsGOTzxo3zQSq-182" target="ifjBBACGsGOTzxo3zQSq-13">
          <mxGeometry width="100" height="100" relative="1" as="geometry">
            <mxPoint x="390" y="100" as="sourcePoint" />
            <mxPoint x="490" as="targetPoint" />
          </mxGeometry>
        </mxCell>
        <mxCell id="ifjBBACGsGOTzxo3zQSq-187" value="" style="edgeStyle=entityRelationEdgeStyle;fontSize=12;html=1;endArrow=ERmandOne;startArrow=ERmandOne;fontColor=#5C5C5C;strokeColor=#006658;fillColor=#21C0A5;exitX=1;exitY=0.5;exitDx=0;exitDy=0;entryX=0;entryY=0.5;entryDx=0;entryDy=0;" edge="1" parent="1" source="C-vyLk0tnHw3VtMMgP7b-27" target="ifjBBACGsGOTzxo3zQSq-174">
          <mxGeometry width="100" height="100" relative="1" as="geometry">
            <mxPoint x="330" y="-90" as="sourcePoint" />
            <mxPoint x="430" y="-190" as="targetPoint" />
          </mxGeometry>
        </mxCell>
        <mxCell id="ifjBBACGsGOTzxo3zQSq-191" value="" style="edgeStyle=entityRelationEdgeStyle;fontSize=12;html=1;endArrow=ERmandOne;startArrow=ERmandOne;fontColor=#5C5C5C;strokeColor=#006658;fillColor=#21C0A5;exitX=1;exitY=0.5;exitDx=0;exitDy=0;entryX=0;entryY=0.5;entryDx=0;entryDy=0;" edge="1" parent="1" source="ifjBBACGsGOTzxo3zQSq-40" target="ifjBBACGsGOTzxo3zQSq-127">
          <mxGeometry width="100" height="100" relative="1" as="geometry">
            <mxPoint x="290" y="-160" as="sourcePoint" />
            <mxPoint x="390" y="-260" as="targetPoint" />
          </mxGeometry>
        </mxCell>
      </root>
    </mxGraphModel>
  </diagram>
</mxfile>
